<svg width="1440" height="707" viewBox="0 0 1440 707" fill="none" xmlns="http://www.w3.org/2000/svg">
<g filter="url(#filter0_f_12760_30066)">
<path d="M-96.7251 370.452C-126.565 388.184 -43.0782 295.128 -58.6761 306.947C-59.2599 307.413 -59.8734 307.94 -60.515 308.522C-90.3002 317.935 -138.275 360.801 -141.895 345.883C-145.949 330.356 -193.075 359.256 -179.323 337.731C-165.565 316.205 -226.074 375.864 -220.495 360.325C-218.253 354.584 -218.357 351.906 -219.538 352.065C-225.517 351.031 -237.843 357.217 -255.287 367.895C-283.329 384.737 -322.799 395.477 -308.619 369.21C-294.498 342.883 -343.698 382.498 -358.887 391.014C-363.619 393.668 -369.048 397.556 -374.313 401.696C-376.544 403.452 -380.461 407.31 -384.117 411.172C-384.12 411.174 -384.122 411.177 -384.125 411.179C-388.677 415.987 -392.819 420.797 -392.794 421.554C-392.678 425.225 -395.672 434.082 -406.971 452.794C-428.092 487.676 -393.068 451.973 -396.35 471.806C-399.714 491.664 -425.195 526.603 -392.247 508.682C-384.526 504.538 -383.401 506.25 -385.636 510.654C-386.522 527.184 -424.412 572.176 -370.299 537.758C-300.155 492.838 -391.363 586.952 -391.003 603.743C-391.012 605.798 -390.069 606.902 -388.469 607.251C-354.348 617.521 -299.5 581.974 -293.491 589.059C-291.134 592.162 -289.703 596.545 -288.287 599.686C-278.354 606.89 -276.628 608.333 -263.172 603.792C-251.021 599.637 -250.85 608.211 -247.956 615.252C-244.7 621.88 -238.782 627.419 -219.177 621.919C-177.516 610.266 -121.856 597.42 -89.1874 586.104C-62.5852 576.905 -52.692 573.527 -51.6073 581.303C-51.3139 583.102 -51.5471 585.446 -52.0469 588.475C-53.5396 597.67 -37.8669 597.148 0.399985 577.646C19.9058 567.001 25.9029 547.928 36.5537 540.375C47.7524 528.443 34.0153 533.582 56.3771 512.766C98.9542 472.849 116.986 456.733 87.751 472.45C86.4442 473.16 85.0393 473.932 83.5338 474.768C48.3547 494.085 111.632 441.047 100.425 444.967C89.155 448.846 50.0516 479.164 61.48 445.296C72.8782 411.398 69.9229 399.475 69.6671 389.717C69.5158 384.557 55.6165 387.029 42.021 387.95C29.3305 388.484 17.0401 387.981 14.6774 379.665C13.1113 368.573 -16.8595 359.464 -21.2228 354.557C-29.233 349.696 -33.9111 344.67 -32.7102 337.252C-29.1189 316.222 -66.3722 352.901 -96.7251 370.452ZM783.56 483.824C773.054 483.377 766.245 480.739 761.752 476.415C738.585 453.943 776.76 381.805 725.419 377.007C697.6 374.513 670.939 382.822 646.653 389.447C618.001 397.137 593.369 402.677 570.905 384.144C559.205 374.664 541.419 367.829 522.837 363.445C473.896 352.135 424.495 356.089 418.85 336.117C414.942 322.012 396.522 331.147 376.362 340.034C357.407 348.302 336.975 356.334 324.19 345.212C314.768 336.975 303.859 331.982 295.108 330.066C271.171 324.698 247.766 329.33 214.38 337.345C201.698 340.456 184.955 342.501 166.714 343.336C110.031 345.788 39.1164 337.762 26.6178 313.569C10.079 281.523 -70.6984 315.379 -105.653 320.285C-116.527 321.815 -126.711 324.84 -135.541 328.336C-139.287 329.818 -143.733 333.589 -147.17 337.499C-147.173 337.501 -147.175 337.504 -147.177 337.506C-151.456 342.375 -154.169 347.458 -152.036 348.601C-141.686 354.153 -129.27 365.856 -121.887 388.048C-108.22 429.418 -71.503 393.954 -28.9497 422.342C0.677906 442.229 12.1405 468.219 44.5602 479.189C58.969 484.02 77.518 486.1 103.256 483.823C123.91 481.97 135.75 486.116 140.656 492.648C159.823 507.973 155.462 532.363 180.563 542.882C194.175 548.591 215.569 549.82 251.662 542.767C293.837 534.528 314.302 538.777 322.429 549.074C339.689 570.326 305.305 617.388 347.207 652.588C350.14 655.07 353.404 657.443 356.905 659.644C395.007 683.577 453.154 690.487 498.056 695.111C515.168 696.714 530.49 698.391 538.261 697.731C542.084 697.156 543.782 696.489 541.79 690.548C542.216 684.106 525.587 673.051 548.713 623.47C567.168 589.601 599.197 566.658 614.582 556.568C637.86 541.672 648.891 537.786 656.058 534.466C663.137 531.445 666.344 530.088 669.782 528.729C662.077 529.706 655.916 530.452 654.56 530.274C653.029 530.121 656.029 529.285 657.316 528.841C660.429 527.928 655.104 527.654 647.037 527.016C630.374 525.821 605.94 524.375 580.159 524.424C566.119 524.379 551.884 524.791 537.138 525.747C439.11 531.998 352.659 491.322 240.498 506.113C196.112 511.949 145.061 517.967 94.4747 523.737C16.2587 532.562 -59.7127 541.416 -106.417 549.257C-183.505 562.213 -202.153 564.94 -253.443 546.55C-283.031 535.953 -335.273 537.106 -394.498 557.609C-424.393 567.917 -432.945 586.009 -419.018 596.698C-398.481 612.344 -367.831 606.86 -368.869 630.523C-371.27 677.772 -370.465 696.088 -312.37 674.753C-254.165 653.417 -279.01 713.397 -251.134 709.097C-223.232 704.738 -198.269 670.653 -101.312 708.523C-84.4119 715.114 -68.6634 720.939 -54.0039 726.127C16.4363 750.783 63.8703 760.553 97.2318 768.883C137.85 779.009 252.432 756.41 317.785 772.615C338.032 777.65 366.964 781.232 398.648 784.432C423.881 786.888 450.054 789.169 482.886 790.711C499.534 791.358 518.825 792.16 547.4 790.265C561.358 789.342 577.399 787.37 588.433 785.798C599.662 784.207 605.647 783.393 609.849 783.072C664.072 773.791 715.874 763.672 793.859 721.082C834.849 698.608 886.677 654.805 908.757 611.959C933.53 563.046 925.066 539.783 920.797 525.023C915.303 510.443 908.412 503.331 902.009 497.894C889.009 487.535 876.669 485.115 864.048 483.648C838.959 481.346 812.642 485.191 783.56 483.824Z" fill="#7A22AC"/>
</g>
<g filter="url(#filter1_f_12760_30066)">
<path d="M1798.31 564.847C1807.55 566.545 1815.94 568.475 1823.4 570.538C1839.86 575.055 1858.7 582.605 1849.93 583.346C1854.15 585.891 1878.38 594.76 1903.45 599.256C1928.86 604.106 1951.52 606.051 1968.31 607.152C2002.17 609.15 2020.34 608.843 2037.09 608.903C2069.35 608.765 2091.19 608.278 2113.16 607.657C2179.01 605.731 2232.05 602.694 2280.03 591.105C2321.8 580.852 2343.66 571.471 2362.74 562.711C2391.69 549.762 2423.61 536.083 2482.22 520.585C2491.42 518.19 2501.71 515.488 2512.5 512.505C2557.6 499.752 2582.24 487.419 2605.61 475.948C2612.57 472.572 2620.73 468.602 2628.68 461.726C2636.81 455.145 2641.58 443.64 2635.52 434.456C2621.68 416.131 2609.38 413.88 2604.28 410.275C2557.74 385.352 2519.81 374.436 2490.44 361.692C2482.23 358.306 2475 355.181 2469.09 352.239C2420.14 329.375 2373.01 338.551 2306.65 328.071C2294.25 326.199 2280.98 323.742 2266.5 320.425C2223.56 310.62 2187.81 304.706 2157.09 300.492C2124.39 296.173 2089.63 291.781 2035.71 287.791C2030.58 287.434 2025.46 287.119 2020.33 286.838C1995.73 285.474 1962.46 283.576 1924.68 281.89C1916.45 281.512 1907.79 281.131 1898.66 280.791C1889.92 280.464 1878.61 280.126 1875.32 280.145C1846.68 278.864 1833.67 279.412 1814.33 279.074C1762.57 278.637 1714.67 278.775 1668.88 277.818C1615.4 276.776 1567.99 274.845 1537.12 271.411C1526.32 270.209 1515.43 269.316 1504.91 268.663C1495.14 268.03 1485.53 267.587 1477.67 267.264C1473.81 267.108 1470.29 266.965 1468.6 266.934C1467.76 266.922 1467.47 266.943 1468.07 267.074C1468.35 267.138 1468.88 267.237 1469.28 267.332C1469.65 267.42 1469.95 267.513 1468.44 267.337C1446.41 264.847 1434.43 264.305 1418.29 263.11C1394.13 260.796 1389.63 261.715 1377.05 260.955C1353.42 259.633 1328.42 257.811 1307.1 256.044C1299.35 255.403 1292.08 254.759 1285.65 254.1C1279.85 253.498 1275.26 253.12 1271.62 252.797C1258.65 250.747 1247.09 250.725 1242.5 250.892L1244.94 251.301C1245.53 251.599 1244.56 251.56 1243.37 251.409C1242.11 251.253 1240.5 250.965 1237.92 250.598C1235.66 250.255 1232.34 249.986 1230.46 250C1225.08 250.068 1224.01 250.757 1222.64 251.408C1221.47 252.087 1221.11 252.875 1221.35 253.66C1221.35 253.661 1221.35 253.662 1221.35 253.663C1221.64 254.635 1222.92 255.6 1224.75 256.368C1225.64 256.753 1226.74 257.092 1227.39 257.359C1227.7 257.49 1227.87 257.612 1227.4 257.657C1227.01 257.718 1225.53 257.582 1225.02 257.502C1225 257.499 1224.98 257.497 1224.96 257.495C1224.48 257.432 1224.94 257.587 1225.76 257.876C1226.64 258.168 1227.81 258.601 1230.56 259.223C1231.03 259.303 1232.38 259.557 1232.88 259.612C1242.09 261.104 1246.87 261.874 1250.26 263.234C1262.46 266.582 1272.59 268.91 1283.88 272.056C1300.92 276.734 1318.74 282.33 1340.86 288.92C1342.46 289.374 1344.05 289.823 1345.72 290.283C1358.19 293.832 1374.68 296.846 1375.45 297.957C1392.56 302.167 1411.92 305.286 1420.91 306.602C1468.4 312.767 1485.25 310.385 1512.57 310.598C1543.09 310.239 1579.35 310.19 1635 313.38C1649.48 314.213 1663.39 315.109 1676.81 316.051C1727.71 319.66 1776.52 323.641 1814.46 327.278C1823.32 328.053 1832.3 328.792 1840.64 329.481C1848.7 330.137 1857.37 330.93 1853.63 331.024C1870.17 332.441 1872.53 332.676 1878.49 333.281C1883.86 333.825 1889.71 334.414 1896.21 335.053C1921.11 337.491 1947.99 339.844 1972.64 342.004C1980.14 342.666 1988.5 343.474 1998.22 344.493C2025.51 347.4 2053.37 352.431 2077.98 357.274C2133.98 368.277 2167.37 379.897 2205.52 390.855C2234.42 399.289 2264.09 406.416 2304.32 414.389C2315.13 416.721 2327.42 419.414 2340.92 422.42C2363.68 427.385 2382.72 433.782 2389.8 436.499C2394.59 439.033 2398.61 441.18 2399.86 441.799C2401.4 442.501 2398.39 440.881 2397.18 436.769C2395.93 432.646 2399.45 428.766 2400.76 427.618C2402.2 426.3 2401.7 426.406 2399.94 426.725C2359.36 440.241 2315.38 446.082 2274.18 447.655C2230.63 452.762 2199.92 454.618 2145.02 463.089C2141.5 463.64 2137.84 464.231 2134.19 464.83C2065.94 475.941 1988.75 492.457 1938.73 502.4C1935.48 503.071 1932.74 503.634 1931.3 504.025C1929.94 504.417 1929.58 504.623 1933.4 504.592C1937.82 504.679 1944.02 503.917 1971.98 504.984C1985.9 505.647 2008.09 507.072 2035.52 511.93C2062.41 516.317 2090.3 526.186 2091.67 527.257C2049.88 512.318 2034.69 510.624 2013.85 505.16C1935.71 486.555 1865.57 470.809 1807.52 456.593C1791.23 452.639 1776.08 448.813 1761.73 445.048C1737.36 439.122 1717.66 432.142 1654.93 422.715C1640.79 420.702 1625.42 418.742 1608.16 416.982C1599.55 416.104 1590.39 415.278 1581.26 414.573C1576.76 414.224 1572.17 413.9 1568.65 413.655C1566.92 413.533 1565.44 413.429 1565.12 413.391C1565.02 413.38 1565.08 413.309 1572.36 413.873C1550.47 411.897 1534.31 410.407 1504.99 408.697C1499.14 408.369 1494.93 408.128 1495.11 408.084C1495.88 408.212 1498.64 407.688 1522.86 410.739C1502.55 407.891 1490.39 406.562 1487.99 406.128C1492.72 406.713 1496.88 407.34 1498.33 407.561C1499.9 407.8 1499.74 407.769 1499.18 407.663C1497.93 407.429 1495.21 406.939 1492.67 406.485C1487.43 405.547 1481.85 404.566 1476.52 403.64C1465.67 401.759 1455.19 399.986 1444.55 398.222C1386.39 388.674 1328.83 379.545 1254.35 370.693C1229.67 367.85 1195.69 364.166 1156.26 362.46C1106.28 360.367 1069.87 361.472 1039.6 361.926C963.15 363.416 887.312 364.844 816.26 365.341C803.653 365.414 790.837 365.479 780.851 365.427C776.09 365.405 771.368 365.315 772.714 365.245C773.684 365.243 776.009 365.137 786.083 365.653C794.723 365.967 821 368.47 838.082 371.957C830.699 370.475 825.365 369.411 828.052 369.877C830.026 370.378 845.218 372.696 866.08 381.356C887.293 390.121 895.202 401.321 895.646 405.844C896.574 410.825 895.167 412.424 894.932 413.269C896.475 411.175 896.348 412.099 895.452 412.724C895.043 413.05 894.583 413.313 894.436 413.385C894.282 413.462 894.444 413.36 895.06 413.1C907.016 408.54 916.488 403.727 920.027 401.919C921.786 401.005 921.99 400.921 920.049 401.61C918.165 402.277 913.934 403.658 908.723 404.881C891.346 409.048 878.049 409.92 872.005 410.266C871.137 410.289 867.959 410.446 865.537 410.498C862.992 410.561 860.592 410.576 858.499 410.555C854.286 410.513 851.226 410.342 849.123 410.159C844.918 409.782 844.373 409.391 845.666 409.235C850.681 409.381 860.722 410.136 870.618 410.893C883.058 411.855 896.253 412.99 912.324 414.462C917.933 414.99 923.889 415.545 930.006 416.089C932.988 416.352 936.278 416.643 938.151 416.768C938.992 416.818 939.51 416.84 937.815 416.579C936.293 416.334 931.181 415.64 924.117 414.374C948.035 418.083 958.235 418.719 971.054 419.854C983.07 420.819 993.861 421.443 1004.14 421.913C1024.68 422.839 1043.1 423.138 1060.9 423.162C1093.62 423.18 1131.25 422.068 1155.96 420.684C1182 419.677 1189.48 418.72 1204.44 417.926C1218.18 417.12 1232.62 416.411 1247.41 415.762C1308.82 413.19 1372.22 410.912 1428.06 408.963C1458.95 407.895 1478.42 407.299 1509.81 407.146C1553.3 406.629 1592.59 406.066 1625.61 405.048C1631.55 404.864 1637.42 404.67 1643.38 404.45C1668.21 403.309 1694.1 402.538 1717.9 400.417C1735.48 398.505 1754.53 397.718 1775.66 396.902C1799.12 395.87 1824.7 396.264 1850.94 398.512C1869.32 400.036 1885.4 401.349 1898.25 403.607C1917.69 406.294 1927.59 407.475 1940.8 409.638C1946.63 410.591 1952.4 411.564 1958.05 412.575C1983.06 416.53 1999.94 417.97 2014.1 420.007C2027.05 421.787 2031.35 422.256 2040.72 423.695C2049.41 425.018 2059.05 426.577 2068.94 428.159C2113.6 435.386 2162.46 442.214 2210.63 446.773C2212.81 446.983 2214.92 447.177 2217.03 447.363C2229.45 448.476 2239.09 448.86 2245.9 448.556C2249.22 448.395 2252.24 448.095 2253.3 447.463C2253.83 447.132 2252.89 446.799 2252.54 446.48C2252.33 446.317 2252.14 446.153 2251.9 445.995C2251.66 445.837 2251.34 445.685 2251.4 445.5C2251.42 445.316 2252.07 445.097 2252.79 444.938C2253.51 444.776 2254.15 444.656 2254.55 444.524C2255.33 444.264 2255.45 443.958 2255.35 443.601C2255.11 442.89 2253.88 442.009 2252.09 441.031C2248.42 439.06 2242.24 436.673 2233.69 433.998C2232.43 433.597 2230.99 433.165 2229.6 432.747C2186.22 419.796 2142.44 411.967 2114.54 402.746C2105.92 399.938 2098.54 397.002 2092.23 393.675C2087.39 391.127 2082.01 388.636 2075.8 386.232C2069.6 383.826 2063.26 381.651 2062.06 380.223C2038.64 372.174 2014.5 366.654 2016.96 365.078C2004.22 362.287 1990.57 360.072 1976.62 358.46C1969.66 357.655 1962.58 356.997 1956.14 356.535C1952.94 356.305 1949.88 356.121 1947.57 356.036C1946.42 355.994 1945.46 355.977 1945 356.019C1944.56 356.066 1944.5 356.151 1946.06 356.461C1924.09 354.397 1901.44 353.757 1884.63 354.157C1878.16 354.3 1872.95 354.428 1868.64 354.493C1819.82 353.625 1788.18 351.209 1751.93 348.443C1731.88 345.691 1703.11 341.673 1670.76 341.561C1665.15 341.15 1665.56 340.906 1660.79 341.386C1651.93 342.226 1640.5 343.838 1627.03 345.495C1611.02 348.13 1580.28 350.42 1506.98 347.909C1487.15 347.174 1445.66 345.429 1410.36 344.413C1387.1 343.656 1362.06 342.773 1334.26 341.687C1293 340.085 1254.84 338.71 1217.79 337.613C1199.13 337.085 1180.85 336.665 1162.32 336.419C1145.03 336.126 1121.18 336.275 1117.61 335.826C1087.61 335.346 1073.82 334.467 1055.34 333.278C1047.19 332.67 1040.41 331.965 1036.43 331.344C1034.49 331.041 1033.22 330.752 1033.57 330.625C1033.77 330.566 1034.35 330.542 1035.92 330.659C1037.72 330.826 1039.29 330.879 1047.01 332.101C1024.87 328.381 1019.74 328.127 1016.85 327.636C1014 327.238 1012.66 327.02 1011.02 326.761C1007.9 326.265 1004.68 325.744 1001.24 325.187C975.112 321.134 949.447 316.986 913.599 312.724C874.241 308.238 820.341 304.727 764.368 308.395C760.135 308.664 755.749 308.981 751.199 309.36C732.548 310.957 708.194 313.688 681.949 320.165C658.121 325.981 641.315 333.489 634.323 336.953C626.918 340.628 626.344 341.035 626.865 341.093C601.013 350.465 573.506 370.685 570.153 383.845C568.368 387.799 566.088 392.527 567.648 400.56C568.859 408.169 578.395 422.291 606.062 434.261C633.438 446.134 659.452 450.95 671.167 453.371C683.793 455.791 688.265 456.393 690.393 456.687C712.704 461.162 745.01 464.347 760.408 465.032C777.209 465.924 786.33 465.941 793.929 465.997C808.658 466.028 817.136 465.771 825.631 465.555C841.971 465.091 855.544 464.557 869.32 464.053C940.423 461.338 1006.05 458.799 1065.53 459.288C1072.45 459.348 1079.55 459.4 1086.63 459.46C1105.27 459.587 1123.98 459.882 1130.4 460.409C1133.86 460.667 1134.7 460.816 1138.74 461.272C1142.64 461.722 1149.99 462.63 1159.7 463.966C1204.47 470.163 1264.62 479.719 1319.79 488.874C1329.33 490.463 1338.56 492.018 1347.47 493.557C1351.88 494.319 1356.15 495.068 1360.55 495.847C1362.81 496.247 1364.93 496.628 1368.51 497.25C1371.87 497.8 1378.67 499.118 1394.47 501.177C1404.02 502.407 1409.4 503.035 1413.67 503.578C1417.74 504.085 1420.51 504.481 1419.45 504.379C1452.57 508.705 1464.34 508.79 1473.95 509.494C1482.98 510.009 1487.53 510.222 1490.35 510.399C1494.87 510.745 1511.94 512.077 1521.87 513.121C1532.37 513.981 1535.05 514.097 1537.6 514.284C1539.9 514.44 1540.97 514.519 1541.8 514.587C1543.36 514.716 1543.81 514.783 1544.32 514.856C1545.21 514.993 1545.91 515.129 1547.03 515.318C1549.21 515.689 1552.59 516.253 1556.48 516.979C1547.37 516.001 1550.77 516.71 1555.62 518.308C1560.68 519.886 1567.43 522.041 1573.54 524.172C1585.11 528.195 1596.92 531.92 1607.87 535.014C1672.85 553.784 1709.09 548.637 1798.31 564.847Z" fill="#35D6BE"/>
</g>
<g style="mix-blend-mode:plus-darker" filter="url(#filter2_f_12760_30066)">
<path d="M355.878 646.947C308.204 658.549 264.583 643.134 218.702 626.588C194.445 617.537 166.478 608.728 147.194 601.956C109.022 591.956 19.5452 619.318 -13.5131 658.952C-24.1295 669.517 -31.4528 678.819 -37.6277 687.645C-70.5178 737.693 -74.9143 766.047 -80.8422 792.515C-84.9064 807.218 -89.5054 824.072 -92.4031 847.024C-95.6569 869.966 -92.8683 897.179 -89.7611 905.65C-88.3004 921.513 -83.0632 941.702 -75.9569 956.125C-68.9305 970.782 -61.678 980.314 -55.718 987.594C-43.7108 1001.83 -34.7091 1009.83 -25.7448 1019.23C-11.0872 1037.59 13.7659 1052.52 30.0116 1057.76C46.8308 1063.59 57.7144 1064.9 66.8182 1066.31C84.606 1068.7 96.7361 1069.81 110.17 1072.08C110.641 1072.15 111.116 1072.23 111.595 1072.3C172.28 1081.21 227.362 1079.32 279.874 1075.73C357.731 1070.2 421.881 1057.84 459.99 1065.76C464.903 1066.77 469.445 1067.35 473.683 1067.56C524.737 1069.94 531.046 1020.1 610.706 1022.29C621.611 1022.6 631.896 1022.68 641.6 1022.56C688.034 1021.93 725.25 1016.47 767.173 1003.34C785.33 997.615 803.453 990.496 822.772 982.014C832.989 977.525 846.216 972.45 861.549 966.902C873.814 962.472 890.462 956.743 902.889 952.071C920.296 946.516 933.016 940.959 948.134 935.51C983.964 922.194 1020.07 908.356 1055.82 896.578C1102.11 881.236 1146.36 868.793 1179.03 864.511C1186.28 863.591 1192.8 863.185 1198.61 863.289C1210.3 863.449 1219.42 863.185 1228.16 863.186C1246.81 862.032 1262.59 859.105 1279.22 855.121C1295.89 851.3 1306.24 847.049 1319.07 842.761C1344.02 834.262 1368.48 824.611 1389.93 816.603C1401.58 812.26 1412.49 808.357 1421.86 805.753C1424.36 805.06 1426.71 804.384 1429.03 803.723C1439.19 801.232 1447.81 797.327 1453.65 794.237L1453 794.311C1454.86 793.247 1457.72 792.335 1460.71 791.164C1461.75 790.768 1462.98 790.295 1464.05 789.756C1469.61 786.566 1469.53 782.312 1468.54 778.803C1468.54 778.8 1468.54 778.798 1468.54 778.796C1467.35 774.269 1461.44 771.751 1459.07 771.288C1459.06 771.287 1459.06 771.287 1459.06 771.287C1457.14 771.199 1454.57 770.878 1450.97 770.825C1450.86 770.844 1450.49 770.868 1450.38 770.893C1442.17 771.206 1434.85 771.475 1426.64 770.474C1413.27 769.342 1399.51 768.279 1384.3 766.217C1369.14 764.172 1352.65 761.341 1335.08 757.658C1325.28 755.61 1316.37 754.15 1307.97 753.247C1291.29 751.374 1275.54 752.445 1266.04 753.236C1248.27 754.871 1231.8 759.192 1215.06 763.214C1194.64 767.202 1175.69 774.169 1152.86 780.591C1137.45 784.998 1119.84 789.319 1098.63 793.286C1073.02 798.078 1049.32 801.563 1026.66 804.524C987.699 809.553 950.24 814.133 915.789 819.357C901.758 821.45 884.009 825.257 875.987 826.228C858.245 829.614 849.732 831.448 835.121 834.712C812.706 839.777 788.826 846.232 762.91 854.137C757.658 855.737 752.549 857.114 747.582 858.284C700.992 869.015 661.893 863.982 622.617 859.084C573.092 852.706 524.281 845.44 452.89 859.665C430.306 864.1 405.395 870.604 377.075 879.532C338.894 891.553 306.799 896.735 278.875 897.501C216.857 898.964 172.058 881.002 128.485 860.348C117.97 855.89 106.471 851.41 100.485 847.212C97.8715 845.263 96.3149 842.783 104.025 843.153C107.903 843.47 114.808 844.743 124.834 849.559C134.736 854.183 147.25 863.46 155.717 873C152.268 865.3 148.433 856.992 149.03 854.505C149.383 853.53 151.455 854.207 156.042 862.194C160.648 869.522 166.425 888.667 166.924 901.251C167.309 898.042 167.813 897.288 168.137 899.413C168.47 901.448 168.41 906.087 167.932 910.155C166.889 918.743 165.547 922.374 166.468 921.603C166.708 921.427 167.086 920.95 167.584 920.258C175.211 907.213 181.933 895.762 188.01 886.058C190.992 881.289 193.773 877.068 195.661 874.327C197.384 871.685 198.904 870.194 195.163 873.655C191.141 877.243 182.807 883.629 170.235 888.18C164.093 890.426 157.119 892.016 151.133 892.63C148.162 892.948 145.419 893.043 143.492 892.997C141.628 892.955 140.25 892.772 141.91 892.669C175.727 891.916 199.768 888.762 226.258 886.067C324.183 875.277 418.034 860.582 494.041 851.762C527.494 847.841 557.222 845.154 583.005 844.268C601.737 843.541 621.219 843.059 646.99 840.179C657.514 839.012 668.423 837.654 680.095 835.859C685.919 834.962 692 833.937 698.172 832.777C701.253 832.199 704.389 831.578 707.24 831.004C708.641 830.723 709.971 830.455 710.913 830.282C711.796 830.118 712.521 830.021 711.094 830.367C727.499 827.552 742.146 825.014 761.544 820.695C770.124 818.663 777.013 817.518 771.896 818.673C784.962 817.114 796.008 815.438 804.466 814.391C803.615 814.566 805.496 814.376 808.027 814.157C810.546 813.933 813.448 813.671 816.269 813.411C821.978 812.886 827.844 812.323 833.605 811.749C845.266 810.587 856.801 809.358 868.553 808.028C930.603 800.932 994.647 792.003 1062.44 777.763C1063.31 777.578 1064.17 777.394 1065.04 777.211C1103.24 769.872 1167.01 755.117 1209.35 737.928C1259.49 719.462 1308.91 700.553 1355.68 683.898C1364.96 680.624 1374.35 677.313 1382.03 674.829C1385.75 673.62 1389.19 672.631 1389.63 672.669C1389.83 672.683 1389 673.028 1386.97 673.521C1385.02 674.017 1381.94 674.484 1381.25 674.595C1393.1 673.727 1403.23 673.142 1402.08 673.504C1401.65 673.623 1398.47 673.575 1395.5 673.067C1392.49 672.586 1390.23 671.859 1389.76 671.721C1393.89 673.293 1395.55 674.424 1391.58 672.28C1388.21 669.93 1375.1 664.077 1360.81 640.019C1373.97 662.38 1384.62 670.909 1385.41 672.169C1385.78 672.343 1383.72 671.009 1376.8 661.055C1370.96 652.422 1354.08 624.547 1358.49 584.844C1368.91 526.837 1390.91 518.666 1397.35 510.574C1405.57 503.726 1409.26 501.928 1411.86 500.395C1424.04 494.27 1421.72 496.698 1418.81 497.486C1415.55 498.66 1410.28 500.167 1404.57 501.624C1385.47 506.276 1362.89 511.405 1341.18 517.119C1337.66 518.042 1334.03 518.983 1330.35 519.937C1325.46 521.192 1320.43 522.487 1315.35 523.822C1312.82 524.485 1310.2 525.174 1307.98 525.797C1306.9 526.104 1305.92 526.392 1305.54 526.58C1305.36 526.675 1305.34 526.742 1305.51 526.785C1305.68 526.829 1306.05 526.849 1306.41 526.876C1272.45 533.466 1248.46 542.012 1221.26 552.281C1200.52 560.349 1176.51 570.861 1158.61 580.006C1142.93 587.296 1137.1 591.228 1127.1 596.264C1117.74 601.107 1107.92 605.945 1097.89 610.763C1055.41 630.996 1011.49 651.294 970.905 669.918C948.631 680.172 930.858 687.904 908.11 696.946C872.347 711.645 839.63 725.092 809.193 739.02C792.69 746.998 776.657 753.982 759.726 764.24C759.586 764.343 759.444 764.446 759.301 764.549C749.11 771.798 736.137 778.41 723.277 785.248C702.225 797.014 681.305 805.304 662.467 811.324C644.471 816.908 629.439 821.317 613.121 823.878C591.331 827.64 572.158 830.736 547.613 832.179C531.272 833.31 515.01 835.11 497.554 836.002C494.604 836.155 491.628 836.316 488.626 836.48C466.959 838.077 445.418 839.677 420.709 842.572C369.46 848.553 313.444 859.887 262.955 877.439C258.477 878.993 254.082 880.594 249.68 882.255C229.506 889.812 221.011 898.513 226.409 904.163C227.197 910.539 241.598 915.086 262.574 917.215C263.854 917.342 265.117 917.463 266.444 917.571C326.814 922.884 375.261 911.964 408.004 929.252C415.53 933.225 422.579 936.914 429.271 940.284C456.225 954.123 481.502 962.179 505.142 962.156C524.563 962.14 545.733 956.808 562.63 949.047C569.841 946.545 577.369 943.557 585.207 940.052C602.015 932.446 618.994 927.573 628.395 926.696C652.124 924.055 672.622 924.834 687.771 927.942C716.544 931.314 742.206 935.562 768.371 923.171C770.439 922.184 772.479 921.152 774.594 920.031C785.923 912.556 795.286 904.005 818.21 888.203C820.891 885.24 821.99 883.164 828.061 879.634C833.808 876.237 842.086 872.338 852.016 868.262C871.974 859.918 904.034 850.56 949.294 840.712C967.802 836.863 995.879 830.955 1022.14 824.856C1024.92 824.232 1027.81 823.575 1030.67 822.935C1079.05 812.027 1121.87 801.813 1161.89 791.577C1174.36 788.337 1186.57 785.021 1198.79 781.424C1210.43 778.104 1225.52 772.845 1229.96 772.163C1251.14 766.029 1264.68 763.242 1281.27 759.933C1300.63 756.249 1321.81 753.671 1331.06 754.108C1338.46 753.45 1342.1 752.931 1344.68 752.706C1347.31 752.448 1349.49 752.261 1351.74 752.067C1356.2 751.684 1360.64 751.318 1365.06 750.958C1394.69 748.472 1421.08 746.26 1448.08 742.976C1455 742.077 1461.96 741.047 1469.26 739.747C1484.24 736.143 1496.22 736.98 1535.22 716.613C1540.96 713.226 1547.75 709.413 1559.02 699.964C1568.3 689.063 1594.17 678.507 1605.97 612.567C1610.94 568.92 1592.57 535.532 1583.99 522.926C1574.41 508.901 1569.25 504.394 1566.73 501.589C1561.71 497.009 1566.94 500.048 1577.06 517.265C1530.05 448.148 1494.41 450.197 1477.68 441.342C1458.19 434.019 1426.65 428.218 1403.58 429.293C1380.45 430.082 1368.99 432.778 1359.38 434.227C1347.44 435.422 1330.2 439.5 1321.65 442.548C1312.3 445.683 1306.14 448.29 1300.3 450.751C1288.85 455.653 1279.28 460.103 1269.47 464.589C1220.15 487.355 1172.79 509.723 1128.71 525.052C1117.37 528.976 1107.13 532.06 1098.38 533.927C1081.46 537.608 1061.63 540.336 1030.42 544.113C974.771 550.767 906.59 558.685 840.119 565.926C828.728 567.16 817.562 568.344 806.372 569.484C800.853 570.045 795.292 570.598 789.783 571.132C783.683 571.779 780.675 571.81 767.995 573.52C755.374 575.306 745.609 576.831 738.092 577.683C716.83 580.807 708.323 583.712 701.63 585.057C690.704 587.42 675.347 590.32 662.722 592.357C654.94 593.906 653.842 594.178 651.46 594.613C649.401 594.994 647.654 595.287 645.87 595.568C642.319 596.127 638.709 596.622 634.944 597.082C627.44 597.996 619.6 598.718 611.878 599.248C599.244 599.716 581.624 599.332 567.469 598.169C530.08 595.131 503.426 596.523 482.601 601.036C440.685 610.038 419.974 631.292 355.878 646.947Z" fill="#002898"/>
</g>
<g style="mix-blend-mode:plus-darker" filter="url(#filter3_f_12760_30066)">
<path d="M787.982 730.256C795.067 729.876 800.307 729.961 805.312 730.42C811.264 730.863 812.176 731.777 830.442 732.826C840.548 737.325 814.286 749.127 849.06 747.767C868.592 747.139 898.713 745.37 926.783 742.897C966.471 738.766 995.11 734.467 1035.77 734.562C1089.13 734.446 1144.85 727.131 1191.84 723.707C1205.53 722.676 1217.31 721.974 1227.02 721.926C1275.25 721.179 1268.67 708.921 1318.57 704.846C1370.32 700.217 1387.95 695.155 1405.69 687.677C1408.59 686.448 1413.05 684.982 1418.64 683.41C1420.37 683.196 1424.79 682.294 1426.48 682.05C1453.68 673.307 1512.63 660.186 1552.58 657.709C1580.6 656.003 1595.12 651.081 1603.32 646.772C1603.95 646.684 1605.54 646.337 1606.16 646.244C1616.26 642.223 1617.07 639.527 1622.94 637.325C1626.96 635.726 1628.93 634.257 1629.65 632.993C1629.92 632.463 1627.9 631.868 1625.1 631.436C1625.1 631.436 1625.1 631.435 1625.09 631.435C1621.61 630.897 1616.98 630.606 1614.37 630.965C1602.28 632.576 1578.51 635.397 1550.33 636.561C1549.44 636.583 1548.6 636.6 1547.8 636.614L1550.53 636.106C1494.24 639.191 1514.26 644.026 1456.18 650.82C1409.99 656.212 1368.46 658.167 1332.71 665.118L1346.09 662.795C1334.23 664.775 1323.09 667.107 1312.98 669.861C1290.43 676.054 1266.2 676.289 1247.35 676.072C1237.99 675.954 1230.43 675.656 1225.49 675.878C1220.23 676.124 1218.81 676.831 1212.25 679.571C1211.47 679.927 1210.02 680.363 1208.23 680.852C1134.16 696.777 1132.07 676.241 1118.56 672.709C1119.03 672.649 1119.47 672.596 1119.86 672.548C1127.61 671.994 1109.18 671.531 1083.83 671.408C1058.66 671.329 1030.04 672.017 1003.55 673.075C1009.87 673.223 1012.39 673.411 1013.92 673.552C1015.39 673.697 1015.75 673.816 1015.76 673.918C1015.72 674.122 1014.18 674.259 1012.42 674.375C1008.73 674.599 1003.65 674.725 998.513 674.828C988.206 675.033 977.186 675.132 967.039 675.173C946.685 675.247 929.162 675.047 918.646 674.125C891.473 671.735 858.104 668.379 813.026 667.065C792.011 666.451 768.167 666.26 740.48 666.879C713.793 667.478 684.259 667.314 657.189 667.235C604.322 667.289 565.819 667.489 524.819 669.19C508.87 669.888 491.146 670.924 471.922 672.535C447.122 674.61 418.651 676.956 389.889 679.479C335.921 683.825 288.954 689.033 250.533 693.365C217.503 696.98 190.124 700.349 170.018 703.029C108.678 711.297 95.643 713.122 41.2065 714.81C32.4881 715.116 23.6003 715.614 10.4272 716.818C-8.36132 718.665 -45.1071 722.821 -74.0495 729.515C-93.1993 734.102 -84.1471 736.772 -68.8343 737.011C-46.5935 737.452 -25.7431 734.356 -11.7781 737.759C-5.81674 739.24 0.433592 740.412 7.12354 741.219C13.7504 745.771 26.1744 746.045 54.0715 739.783C91.0707 731.715 96.6126 743.495 116.376 740.725C133.765 738.32 143.584 731.559 206.065 730.509C214.079 730.363 222.794 730.295 232.099 730.343C262.657 730.464 282.107 730.911 296.586 731.504C334.27 732.286 359.847 732.59 382.81 732.832C386.965 732.881 392.065 732.782 398.004 732.567C429.623 731.431 486.347 726.504 511.387 725.948C521.594 725.754 528.921 725.852 535.32 726.35C549.829 727.489 576.138 728.071 604.141 729.207C639.677 730.602 673.976 732.682 684.453 736.054C703.344 742.138 736.562 733.235 787.982 730.256Z" fill="black"/>
</g>
<g style="mix-blend-mode:plus-darker" filter="url(#filter4_f_12760_30066)">
<path d="M826.06 793.266C826.433 790.61 841.693 790.254 873.401 790.309C864.038 791.318 863.345 791.912 861.56 792.678C860.157 793.421 859.555 794.214 859.027 795.079C858.033 796.807 857.458 798.817 856.642 801.008C855.096 805.387 852.852 810.476 851.037 815.154C847.102 824.518 847.412 832.157 858.328 829.138C859.239 829.024 860.159 828.901 861.09 828.766C898.004 823.614 913.153 813.95 932.997 805.453C967.672 796.269 994.89 788.827 1024.06 791.438C1025.42 791.569 1026.73 791.725 1027.99 791.908C1044.69 794.349 1069.01 793.28 1070.57 791.413C1077.81 790.711 1081.44 789.842 1086.99 789.034C1092.28 788.224 1098.16 787.468 1103.74 786.927C1114.91 785.844 1124.53 785.615 1125.43 787.435C1126 788.275 1124.64 789.542 1120.88 791.358C1089.08 806.093 1244.61 764.143 1240.5 775.157C1239.09 778.296 1241.12 780.204 1247.96 781.119C1251.44 781.58 1256.01 781.79 1263.02 781.829C1266.48 781.845 1270.72 781.831 1276.51 781.804C1283.26 781.786 1287.59 781.77 1310.18 781.931C1326.11 779.773 1346.82 775.531 1377.86 770.041C1394.72 767.075 1414.25 764.758 1453.45 762.768C1522.1 757.852 1568.74 753.562 1628.92 751.942C1676 750.412 1731.71 746.346 1761.27 746.833C1791.44 747.093 1808.02 745.718 1810.71 744.538C1817.81 744.114 1837.57 740.164 1844.83 739.527C1871.93 732.784 1872.03 716.969 1877.92 711.326C1878 711.178 1878.04 711.034 1878.07 710.888C1879.3 710.789 1882.53 710.083 1883.77 709.967C1891.83 707.554 1889.68 706.672 1889.52 705.415C1888.91 704.228 1887.91 703.025 1886.75 701.831C1885.66 700.75 1880.16 699.062 1873.68 697.576C1873.67 697.575 1873.67 697.574 1873.66 697.573C1865.59 695.724 1855.89 694.212 1851.57 694.563C1847.75 694.87 1843.27 695.19 1838.26 695.484C1833.46 695.741 1827.07 696.151 1825.93 695.456L1830.56 694.708C1806.88 695.475 1783.32 694.652 1750.06 692.776C1712.16 690.522 1696.67 691.589 1686.08 693.981L1718.75 689.182C1703.42 691.702 1694.22 694.711 1689.93 696.048C1685.66 697.454 1688.92 696.49 1709.66 691.805C1714.63 690.663 1719.72 689.508 1724.52 688.364C1738.34 680.128 1732.67 668.761 1749.45 667.039C1773.56 666.988 1742.42 667.146 1701.47 670.46C1683.64 671.917 1671.22 672.337 1662.28 671.968C1674.45 672.235 1676.33 672.311 1678.83 672.291C1680.9 672.268 1681.77 672.157 1682.42 671.995C1683.63 671.668 1683.91 671.142 1684.39 670.503C1685.26 669.22 1686.65 667.479 1688.75 665.524C1692.85 661.605 1699.55 656.811 1702.54 652.561C1708.74 644.086 1699.17 637.657 1624.78 645.093C1611.55 646.397 1596.28 648.132 1578.51 650.37C1516.97 658.243 1477.72 660.283 1458.33 658.822C1414.9 656.494 1427.54 644.983 1434.5 633.303C1443.87 624.419 1440.23 615.572 1407.86 611.792C1398.42 611.207 1387.42 610.816 1376.28 610.621C1342.78 610.092 1319.86 610.578 1300.77 611.548C1263.45 613.173 1233.5 615.689 1201.73 618.815C1185.93 620.38 1170.21 622.085 1153.22 623.951C1144.66 624.887 1135.86 625.859 1125.51 626.933C1120.37 627.469 1114.68 628.038 1107.7 628.684C1100.2 629.367 1093.83 629.957 1074.08 631.396C1120.32 631.298 1059.97 635.26 963.741 644.201C968.191 648.012 919.325 654.408 890.834 656.069C863.641 657.897 858.077 658.372 850.759 658.85C835.284 659.885 830.23 660.106 824.381 660.355C818.971 660.572 814.766 660.674 810.796 660.746C802.945 660.882 796.19 660.884 789.423 660.897C775.972 660.918 762.909 660.947 748.963 661.531C727.772 662.678 704.546 664.29 694.749 665.426C689.964 665.992 689.979 666.332 696.132 666.529C702.037 666.732 713.546 666.918 720.508 667.586C733.151 668.704 732.111 669.474 724.762 669.451C702.763 669.436 684.764 668.346 668.561 667.056C653.464 665.788 635.269 664.208 636.375 663.594C625.11 663.043 612.827 662.704 601.279 662.736C590.363 662.836 577.476 662.927 596.783 664.87C583.903 665.303 570.117 666.086 555.037 667.286C511.591 670.725 464.942 674.463 413.794 678.253C370.134 680.663 331.668 683.748 304.958 686.893C316.832 688.336 304.187 688.872 290.924 689.311C277.125 689.755 261.552 690.269 247.802 690.947C219.802 692.293 196.627 694.066 176.225 695.863C135.532 699.493 104.689 703.276 78.4447 706.713C72.5882 707.724 66.3507 708.712 60.2486 709.67C-42.9992 724.891 -53.5172 726.397 -152.749 725.973C-154.908 726.004 -157.137 726.052 -159.436 726.119C-199.383 725.889 -263.032 735.199 -313.229 754.333C-339.282 764.365 -325.929 773.355 -307.348 776.517C-278.015 780.978 -249.8 773.754 -239.333 785.846C-227.579 800.112 -222.067 809.406 -209.051 810.729C-219.913 813.26 -226.85 811.623 -214.888 804.562C-198.747 795.918 -197.315 800.937 -205.889 807.879C-213.399 814.777 -226.66 823.374 -212.728 820.891C-197.013 818.235 -176.676 810.501 -140.607 805.859C-130.46 803.93 -119.376 802.679 -112.186 803.011C-105.711 803.257 -100.735 805.608 -133.262 809.301C-138.654 810.133 -143.858 811.198 -116.252 813.149C-97.6499 817.921 -94.4087 821.447 -95.7 824.409C-78.0174 833.212 -55.6131 838.056 -42.5202 841.884C-30.9792 842.818 -20.3083 843.551 -13.0847 844.136C18.6828 846.686 35.7987 845.119 67.4545 843.241C155.915 840.449 220.398 833.815 256.825 837.913C258.571 838.03 260.301 838.155 262.017 838.287C283.293 840.154 346.006 841.175 434.1 837.343C516.512 833.574 540.106 831.616 567.231 830.337C609.089 827.964 650.261 825.461 685.948 823.706C703.664 822.841 720.177 822.153 733.448 821.894C740.037 821.768 745.845 821.748 749.777 821.937C753.462 822.144 756.336 822.484 751.043 823.532C746.876 824.204 744.177 824.844 716.753 826.999C747.052 831.613 781.099 815.402 853.161 798.098C838.023 796.946 826.088 795.318 826.06 793.266Z" fill="black"/>
</g>
<defs>
<filter id="filter0_f_12760_30066" x="-625.523" y="99.9375" width="1751.23" height="891.508" filterUnits="userSpaceOnUse" color-interpolation-filters="sRGB">
<feFlood flood-opacity="0" result="BackgroundImageFix"/>
<feBlend mode="normal" in="SourceGraphic" in2="BackgroundImageFix" result="shape"/>
<feGaussianBlur stdDeviation="100" result="effect1_foregroundBlur_12760_30066"/>
</filter>
<filter id="filter1_f_12760_30066" x="317.129" y="0" width="2571.13" height="858.903" filterUnits="userSpaceOnUse" color-interpolation-filters="sRGB">
<feFlood flood-opacity="0" result="BackgroundImageFix"/>
<feBlend mode="normal" in="SourceGraphic" in2="BackgroundImageFix" result="shape"/>
<feGaussianBlur stdDeviation="125" result="effect1_foregroundBlur_12760_30066"/>
</filter>
<filter id="filter2_f_12760_30066" x="-393.857" y="129.164" width="2300.67" height="1249.56" filterUnits="userSpaceOnUse" color-interpolation-filters="sRGB">
<feFlood flood-opacity="0" result="BackgroundImageFix"/>
<feBlend mode="normal" in="SourceGraphic" in2="BackgroundImageFix" result="shape"/>
<feGaussianBlur stdDeviation="150" result="effect1_foregroundBlur_12760_30066"/>
</filter>
<filter id="filter3_f_12760_30066" x="-384.896" y="330.807" width="2314.57" height="717.068" filterUnits="userSpaceOnUse" color-interpolation-filters="sRGB">
<feFlood flood-opacity="0" result="BackgroundImageFix"/>
<feBlend mode="normal" in="SourceGraphic" in2="BackgroundImageFix" result="shape"/>
<feGaussianBlur stdDeviation="150" result="effect1_foregroundBlur_12760_30066"/>
</filter>
<filter id="filter4_f_12760_30066" x="-577.766" y="360.403" width="2717.66" height="735.065" filterUnits="userSpaceOnUse" color-interpolation-filters="sRGB">
<feFlood flood-opacity="0" result="BackgroundImageFix"/>
<feBlend mode="normal" in="SourceGraphic" in2="BackgroundImageFix" result="shape"/>
<feGaussianBlur stdDeviation="125" result="effect1_foregroundBlur_12760_30066"/>
</filter>
</defs>
</svg>
