<svg width="1440" height="978" viewBox="0 0 1440 978" fill="none" xmlns="http://www.w3.org/2000/svg">
<g clip-path="url(#clip0_12369_40460)">
<g style="mix-blend-mode:plus-darker" filter="url(#filter0_f_12369_40460)">
<path d="M975.503 571.135C561.995 571.135 220.515 359.808 76.707 26.1348H1941.71C1694.54 448.788 1357.49 571.135 975.503 571.135Z" fill="#7A22AC"/>
</g>
<g style="mix-blend-mode:plus-darker" filter="url(#filter1_f_12369_40460)">
<path d="M-18.3085 571.201C-431.903 571.201 -773.455 352.746 -917.293 7.81836H948.099C700.878 444.727 363.76 571.201 -18.3085 571.201Z" fill="#35D6BE"/>
</g>
<g style="mix-blend-mode:plus-darker" filter="url(#filter2_f_12369_40460)">
<path d="M618.32 549.681C204.726 549.681 -136.826 331.227 -280.664 -13.7012H1584.73C1337.51 423.208 1000.39 549.681 618.32 549.681Z" fill="#002898"/>
</g>
<g filter="url(#filter3_f_12369_40460)">
<path d="M611.382 227.137C112.675 227.137 -299.163 -36.2721 -472.602 -452.182H1776.66C1478.57 74.6371 1072.07 227.137 611.382 227.137Z" fill="#070921"/>
</g>
</g>
<defs>
<filter id="filter0_f_12369_40460" x="-170.593" y="-221.165" width="2359.6" height="1039.6" filterUnits="userSpaceOnUse" color-interpolation-filters="sRGB">
<feFlood flood-opacity="0" result="BackgroundImageFix"/>
<feBlend mode="normal" in="SourceGraphic" in2="BackgroundImageFix" result="shape"/>
<feGaussianBlur stdDeviation="123.65" result="effect1_foregroundBlur_12369_40460"/>
</filter>
<filter id="filter1_f_12369_40460" x="-1164.59" y="-239.482" width="2359.99" height="1057.98" filterUnits="userSpaceOnUse" color-interpolation-filters="sRGB">
<feFlood flood-opacity="0" result="BackgroundImageFix"/>
<feBlend mode="normal" in="SourceGraphic" in2="BackgroundImageFix" result="shape"/>
<feGaussianBlur stdDeviation="123.65" result="effect1_foregroundBlur_12369_40460"/>
</filter>
<filter id="filter2_f_12369_40460" x="-527.964" y="-261.001" width="2359.99" height="1057.98" filterUnits="userSpaceOnUse" color-interpolation-filters="sRGB">
<feFlood flood-opacity="0" result="BackgroundImageFix"/>
<feBlend mode="normal" in="SourceGraphic" in2="BackgroundImageFix" result="shape"/>
<feGaussianBlur stdDeviation="123.65" result="effect1_foregroundBlur_12369_40460"/>
</filter>
<filter id="filter3_f_12369_40460" x="-613.402" y="-592.982" width="2530.87" height="960.918" filterUnits="userSpaceOnUse" color-interpolation-filters="sRGB">
<feFlood flood-opacity="0" result="BackgroundImageFix"/>
<feBlend mode="normal" in="SourceGraphic" in2="BackgroundImageFix" result="shape"/>
<feGaussianBlur stdDeviation="70.4" result="effect1_foregroundBlur_12369_40460"/>
</filter>
<clipPath id="clip0_12369_40460">
<rect width="1440" height="978" fill="white"/>
</clipPath>
</defs>
</svg>
